<svg width="512" height="421" xmlns="http://www.w3.org/2000/svg">

 <g>
  <title>Layer 1</title>
  <g stroke="null">
   <g stroke="null">
    <path fill="#E6C36A" stroke="null" d="m19.90706,264.20741c-11.88151,-11.39738 -18.02312,-26.55942 -18.33372,-41.82488c-0.30646,-15.26132 5.22223,-30.6633 16.62748,-42.5323c11.39697,-11.86072 26.57499,-18 41.85239,-18.30614c15.28569,-0.31441 30.69562,5.19191 42.58541,16.59757l102.65142,98.67113l204.37105,-259.33907l7.32189,5.58079l-7.33017,-5.60561c0.58393,-0.75707 1.24654,-1.40244 1.9837,-1.92783c12.15898,-10.52034 27.41982,-15.2696 42.33693,-14.45875l0,-0.01655l0.72888,0.06619c15.00408,0.99288 29.66029,7.65341 40.48161,19.71685c11.00768,12.26615 15.998,27.84602 15.16559,43.07425l0.01657,0l-0.06626,0.72811c-0.97736,14.71938 -7.41714,29.10366 -19.08744,39.8474l-245.26679,298.23496l0.01657,0.01655c-0.45969,0.58331 -0.97736,1.08389 -1.54058,1.52241c-11.48394,10.07355 -25.98692,15.0131 -40.40707,14.76489c-14.54025,-0.25236 -29.05151,-5.77523 -40.3408,-16.61412l-143.76666,-138.19585l0,0z"/>
   </g>
  </g>
 </g>
</svg>